<svg width="38" height="38" xmlns="http://www.w3.org/2000/svg" xmlns:xlink="http://www.w3.org/1999/xlink" overflow="hidden"><defs><clipPath id="clip0"><rect x="443" y="216" width="38" height="38"/></clipPath></defs><g clip-path="url(#clip0)" transform="translate(-443 -216)"><path d="M443.506 227.585 460.779 244.858C461.103 245.182 461.542 245.364 462 245.364 462.459 245.364 462.898 245.182 463.222 244.858L480.494 227.585C481.169 226.91 481.169 225.817 480.494 225.142 479.82 224.468 478.726 224.468 478.051 225.142L462 241.194 445.949 225.142C445.611 224.805 445.169 224.636 444.727 224.636 444.285 224.636 443.843 224.805 443.506 225.142 442.831 225.817 442.831 226.91 443.506 227.585Z" fill="#FFFFFF"/></g></svg>