<svg width="37" height="38" xmlns="http://www.w3.org/2000/svg" xmlns:xlink="http://www.w3.org/1999/xlink" overflow="hidden"><defs><clipPath id="clip0"><rect x="406" y="180" width="37" height="38"/></clipPath></defs><g clip-path="url(#clip0)" transform="translate(-406 -180)"><path d="M36.5073 25.7198 19.6887 8.90164C19.3734 8.58624 18.9456 8.40909 18.4996 8.40909 18.0534 8.40909 17.6257 8.58635 17.3103 8.90175L0.492548 25.7199C-0.164258 26.3767-0.164258 27.4416 0.492548 28.0984 1.14924 28.7551 2.21417 28.7552 2.87098 28.0984L18.4996 12.4694 34.1289 28.0984C34.4573 28.4268 34.8877 28.5909 35.3182 28.5909 35.7486 28.5909 36.1791 28.4268 36.5075 28.0982 37.1641 27.4414 37.1641 26.3766 36.5073 25.7198Z" fill="#FFFFFF" transform="matrix(-1.88662e-16 -1.02703 1 -1.83697e-16 406 218)"/></g></svg>