<svg width="38" height="38" xmlns="http://www.w3.org/2000/svg" xmlns:xlink="http://www.w3.org/1999/xlink" overflow="hidden"><defs><clipPath id="clip0"><rect x="481" y="180" width="38" height="38"/></clipPath></defs><g clip-path="url(#clip0)" transform="translate(-481 -180)"><path d="M492.585 217.494 509.858 200.221C510.182 199.897 510.364 199.458 510.364 199 510.364 198.541 510.182 198.102 509.858 197.778L492.585 180.506C491.91 179.831 490.817 179.831 490.142 180.506 489.468 181.18 489.468 182.274 490.142 182.949L506.194 199 490.142 215.051C489.805 215.389 489.636 215.831 489.636 216.273 489.636 216.715 489.805 217.157 490.142 217.494 490.817 218.169 491.91 218.169 492.585 217.494Z" fill="#FFFFFF"/></g></svg>