<svg width="38" height="38" xmlns="http://www.w3.org/2000/svg" xmlns:xlink="http://www.w3.org/1999/xlink" overflow="hidden"><defs><clipPath id="clip0"><rect x="443" y="142" width="38" height="38"/></clipPath></defs><g clip-path="url(#clip0)" transform="translate(-443 -142)"><path d="M480.494 168.415 463.221 151.142C462.897 150.818 462.458 150.636 462 150.636 461.541 150.636 461.102 150.818 460.778 151.142L443.506 168.415C442.831 169.09 442.831 170.183 443.506 170.858 444.18 171.532 445.274 171.532 445.949 170.858L462 154.806 478.051 170.858C478.389 171.195 478.831 171.364 479.273 171.364 479.715 171.364 480.157 171.195 480.494 170.858 481.169 170.183 481.169 169.09 480.494 168.415Z" fill="#FFFFFF"/></g></svg>